<svg xmlns="http://www.w3.org/2000/svg" viewBox="0 0 800 560" role="img" aria-labelledby="title desc">
  <title id="title">Artigo Oswaldo Cruz</title>
  <desc id="desc">Capa ilustrada para o artigo academico sobre impactos ambientais do lixo eletronico.</desc>
  <defs>
    <linearGradient id="bg" x1="0%" y1="0%" x2="100%" y2="100%">
      <stop offset="0%" stop-color="#0f766e"/>
      <stop offset="52%" stop-color="#15803d"/>
      <stop offset="100%" stop-color="#1d4ed8"/>
    </linearGradient>
    <linearGradient id="panel" x1="0%" y1="0%" x2="100%" y2="100%">
      <stop offset="0%" stop-color="rgba(255,255,255,0.94)"/>
      <stop offset="100%" stop-color="rgba(240,249,255,0.88)"/>
    </linearGradient>
  </defs>
  <rect width="800" height="560" rx="32" fill="url(#bg)"/>
  <circle cx="680" cy="118" r="116" fill="rgba(255,255,255,0.10)"/>
  <circle cx="118" cy="468" r="148" fill="rgba(255,255,255,0.08)"/>
  <rect x="58" y="58" width="684" height="444" rx="28" fill="url(#panel)" stroke="rgba(255,255,255,0.35)"/>
  <rect x="96" y="104" width="150" height="36" rx="18" fill="#dcfce7"/>
  <text x="171" y="128" text-anchor="middle" font-family="Segoe UI, Arial, sans-serif" font-size="16" font-weight="700" fill="#166534">Leitura principal</text>
  <text x="96" y="198" font-family="Segoe UI, Arial, sans-serif" font-size="54" font-weight="800" fill="#14532d">Impactos do</text>
  <text x="96" y="256" font-family="Segoe UI, Arial, sans-serif" font-size="54" font-weight="800" fill="#14532d">lixo eletronico</text>
  <text x="96" y="320" font-family="Segoe UI, Arial, sans-serif" font-size="24" font-weight="600" fill="#1d4ed8">contaminacao, metais toxicos</text>
  <text x="96" y="356" font-family="Segoe UI, Arial, sans-serif" font-size="24" font-weight="600" fill="#1d4ed8">e responsabilidade compartilhada</text>
  <rect x="96" y="404" width="204" height="40" rx="20" fill="#14532d"/>
  <text x="198" y="430" text-anchor="middle" font-family="Segoe UI, Arial, sans-serif" font-size="18" font-weight="700" fill="#ffffff">PDF academico</text>
  <path d="M574 176h72l42 42v148a22 22 0 0 1-22 22H574a22 22 0 0 1-22-22V198a22 22 0 0 1 22-22Z" fill="#ffffff" opacity="0.94"/>
  <path d="M646 176v42h42" fill="none" stroke="#0f766e" stroke-width="12" stroke-linejoin="round"/>
  <path d="M588 254h64M588 298h64M588 342h40" fill="none" stroke="#1d4ed8" stroke-width="12" stroke-linecap="round"/>
</svg>
