<svg xmlns="http://www.w3.org/2000/svg" viewBox="0 0 800 560" role="img" aria-labelledby="title desc">
  <title id="title">Artigo Perspectivas</title>
  <desc id="desc">Capa ilustrada para o artigo sobre triagem, reuso e reaproveitamento de lixo eletronico.</desc>
  <defs>
    <linearGradient id="bg" x1="0%" y1="0%" x2="100%" y2="100%">
      <stop offset="0%" stop-color="#1d4ed8"/>
      <stop offset="55%" stop-color="#2563eb"/>
      <stop offset="100%" stop-color="#0f766e"/>
    </linearGradient>
  </defs>
  <rect width="800" height="560" rx="32" fill="url(#bg)"/>
  <path d="M0 420C164 330 300 348 430 412s236 96 370 36v112H0Z" fill="rgba(255,255,255,0.12)"/>
  <rect x="60" y="64" width="680" height="432" rx="30" fill="rgba(15,23,42,0.16)" stroke="rgba(255,255,255,0.24)"/>
  <rect x="98" y="102" width="156" height="36" rx="18" fill="#dbeafe"/>
  <text x="176" y="126" text-anchor="middle" font-family="Segoe UI, Arial, sans-serif" font-size="16" font-weight="700" fill="#1d4ed8">Pesquisa aplicada</text>
  <text x="98" y="194" font-family="Segoe UI, Arial, sans-serif" font-size="52" font-weight="800" fill="#ffffff">Triagem e</text>
  <text x="98" y="252" font-family="Segoe UI, Arial, sans-serif" font-size="52" font-weight="800" fill="#ffffff">reaproveitamento</text>
  <text x="98" y="314" font-family="Segoe UI, Arial, sans-serif" font-size="24" font-weight="600" fill="#dcfce7">manutencao, reuso e doacao</text>
  <text x="98" y="350" font-family="Segoe UI, Arial, sans-serif" font-size="24" font-weight="600" fill="#dcfce7">como pratica educativa e social</text>
  <rect x="98" y="400" width="214" height="40" rx="20" fill="#ffffff"/>
  <text x="205" y="426" text-anchor="middle" font-family="Segoe UI, Arial, sans-serif" font-size="18" font-weight="700" fill="#1d4ed8">Base para solucoes</text>
  <g transform="translate(540 168)">
    <rect width="148" height="194" rx="24" fill="#ffffff" opacity="0.96"/>
    <path d="M36 54h76M36 90h76M36 126h52" fill="none" stroke="#1d4ed8" stroke-width="12" stroke-linecap="round"/>
    <circle cx="76" cy="166" r="24" fill="#dcfce7"/>
    <path d="M62 166l10 10 20-24" fill="none" stroke="#15803d" stroke-width="10" stroke-linecap="round" stroke-linejoin="round"/>
  </g>
</svg>
